<?xml version="1.0" encoding="utf-8"?>
<?xml-stylesheet type="text/xsl" href="rss1.xsl"?>
<rss version="2.0" xmlns:atom="http://www.w3.org/2005/Atom" xmlns:content="http://purl.org/rss/1.0/modules/content/" xmlns:dc="http://purl.org/dc/elements/1.1/" xmlns:media="http://search.yahoo.com/mrss/">
<channel>
 <title>Getty</title>
 <link>http://www.gettyimg.com/</link>
 <atom:link href="http://www.gettyimg.com/" rel="self" type="application/rss+xml" />

 
                <item>
                <title><![CDATA[【Cinema Center】MOVIE - Barbie as the Princess and the Pauper 2004 480p DVDRip DD5.1 H.264]]></title>
                <link><![CDATA[https://sharemania.us/threads/barbie-as-the-princess-and-the-pauper-2004-480p-dvdrip-dd5-1-h-264.233951/]]></link>
                <description><![CDATA[<article>
<blockquote class="messageText SelectQuoteContainer ugc baseHtml">
<div style="text-align: center"><b>BARBIE AS THE PRINCESS AND THE PAUPER (2004)<br>
<img src="https://m.media-amazon.com/images/M/MV5BMjExMDY3NzgyMl5BMl5BanBnXkFtZTgwMDIyNjAwNzE@._V1_.jpg" class="bbCodeImage LbImage" alt="[​IMG]" data-url="https://m.media-amazon.com/images/M/MV5BMjExMDY3NzgyMl5BMl5BanBnXkFtZTgwMDIyNjAwNzE@._V1_.jpg" style=""> <br>
<div class="bbCodeBlock bbCodeQuote">
<aside>
<blockquote class="quoteContainer"><div class="quote">Inspired by Mark Twain's fascinating novel, Princess Anneliese finds an unexpected friendship when she meets her humble look-alike, Erika. Will the Princess and the Pauper thwart the plans of the Queen's scheming advisor, Preminger?</div><div class="quoteExpand">Click to expand...</div></blockquote>
</aside>
</div></b>​</div>
<div class="bbCodeBlock bbCodeQuote">
<aside>
<blockquote class="quoteContainer"><div class="quote"><b>BARBIE_PAUPER_2004_DVDRIP\Barbie.as.the.Princess.and.the.Pauper.2004.480p.DVDRip.DD5.1.H.264.mkv<br>
Format : Matroska<br>
Format version : Version 4<br>
File size : 1.17 GiB<br>
Duration : 1 h 25 min<br>
<br>
Video<br>
ID : 1<br>
Format : AVC<br>
Bit rate : 999 kb/s<br>
Width : 854 pixels<br>
Height : 480 pixels<br>
Stream size : 612 MiB (51%)<br>
<br>
Audio #1<br>
Format : AC-3<br>
Bit rate : 448 kb/s<br>
Channel(s) : 6 channels<br>
Sampling rate : 48.0 kHz<br>
Stream size : 274 MiB (23%)<br>
Title : Surround 5.1<br>
Language : English<br>
Service kind : Complete Main<br>
Default : Yes<br>
Forced : No<br>
Original source medium : DVD-Video<br>
<br>
Audio #2<br>
Format : AC-3<br>
Channel(s) : 2 channels<br>
Sampling rate : 48.0 kHz<br>
Stream size : 157 MiB (13%)<br>
Title : Stereo<br>
Language : English<br>
Service kind : Complete Main<br>
Default : Yes<br>
Forced : No<br>
Original source medium : DVD-Video<br>
<br>
Audio #3<br>
Format : AC-3<br>
Duration : 1 h 25 min<br>
Bit rate : 256 kb/s<br>
Channel(s) : 2 channels<br>
Sampling rate : 48.0 kHz<br>
Stream size : 157 MiB (13%)<br>
Title : Stereo<br>
Language : Spanish<br>
Service kind : Complete Main<br>
Default : Yes<br>
Forced : No<br>
Original source medium : DVD-Video<br>
<br>
Text<br>
Stream size : 39.6 KiB (0%)<br>
Language : English<br>
Default : Yes<br>
Forced : No<br>
Original source medium : DVD-Video</b></div><div class="quoteExpand quoteCut">Click to expand...</div></blockquote>
</aside>
</div>Make files smaller by: Jett123<br>
<div style="text-align: center"><b>Link Google Drive:<br>
<div class="bbCodeBlock bbCodeVfcHH HiddenContent">
<div class="attribution type">Hidden Content:</div>
<blockquote>You must reply before you can see the hidden data contained here.</blockquote>
</div></b>​</div><div style="padding-left: 30px"><span style="font-family: 'Arial'"><b>SOURCE: Torrent, </b><a href="https://sharemania.us/threads/barbie-movies-2001-2012-usa-dvd-iso.219151/" class="internalLink"><b>MOVIE - Barbie Movies (2001-2012) - [USA DVD ISO] | ShareMania.US</b></a></span><br>
​</div>
<div class="messageTextEndMarker">&nbsp;</div>
</blockquote>
</article>]]></description>
                <author><![CDATA[Jett123]]></author>
                </item>

                
                <item>
                <title><![CDATA[【Helpdesk】Which music player do you use?]]></title>
                <link><![CDATA[https://sharemania.us/threads/which-music-player-do-you-use.233952/]]></link>
                <description><![CDATA[<article>
<blockquote class="messageText SelectQuoteContainer ugc baseHtml">
I have been using <b>Sony Music Center for PC </b>because of my <b>Sony Walkman</b>, to sync, but this player has a bug in adding missing information to the files, if activated, it causes the player to freeze and close by itself, so I I leave it disabled, I only use it to listen to the songs.<br>
<br>
I have also been using <b>Windows Media Player Legacy </b>on Windows 11, but it has created confusion in my files, it keeps changing the information and messing everything up. And that irritates me, because he ends up cluttering the library.<br>
<br>
Which player do you use?
<div class="messageTextEndMarker">&nbsp;</div>
</blockquote>
</article>]]></description>
                <author><![CDATA[joaozittoo]]></author>
                </item>

                </channel></rss>